<?xml version="1.0" encoding="UTF-8"?>
<svg width="19px" height="16px" viewBox="0 0 19 16" version="1.1" xmlns="http://www.w3.org/2000/svg" xmlns:xlink="http://www.w3.org/1999/xlink">
    <!-- Generator: Sketch 57.1 (83088) - https://sketch.com -->
    <title>Combined Shape</title>
    <desc>Created with Sketch.</desc>
    <g id="Flight" stroke="none" stroke-width="1" fill="none" fill-rule="evenodd">
        <g id="Flight_Search_result_details_Filter" transform="translate(-609.000000, -387.000000)" fill="#BCC9DC" fill-rule="nonzero">
            <g id="Flights" transform="translate(165.000000, 198.000000)">
                <g id="Group-35" transform="translate(435.000000, 57.000000)">
                    <g id="Group-36-Copy-2" transform="translate(0.000000, 104.000000)">
                        <g id="Group-11" transform="translate(0.000000, 20.000000)">
                            <g id="Sun">
                                <g id="Group-15" transform="translate(9.000000, 8.000000)">
                                    <path d="M9.72919011,11.2302288 L9.8355542,11.2971733 L12.576,13.271 L14.2541,13.2716 C14.7669358,13.2716 15.1896072,13.6576402 15.2473723,14.1549789 L15.2541,14.2716 C15.2541,14.7844358 14.8680598,15.2071072 14.3707211,15.2648723 L14.2541,15.2716 L12.2541,15.2716 C12.0862803,15.2716 11.9218602,15.2293795 11.7756539,15.1497181 L11.6696458,15.0830267 L9.312,13.385 L7.45141816,15.022586 C7.29930977,15.1563301 7.11094851,15.2400937 6.91173047,15.2642999 L6.7911,15.2716 L4.2541,15.2716 C3.70181525,15.2716 3.2541,14.8238847 3.2541,14.2716 C3.2541,13.7587642 3.64014019,13.3360928 4.13747887,13.2783277 L4.2541,13.2716 L6.413,13.271 L8.59078184,11.357614 C8.90906276,11.0777597 9.36475518,11.0315969 9.72919011,11.2302288 Z M9.2526,4.254 C12.0148847,4.254 14.2526,6.49171525 14.2526,9.254 C14.2526,9.80628475 13.8048847,10.254 13.2526,10.254 C12.7003153,10.254 12.2526,9.80628475 12.2526,9.254 C12.2526,7.59628475 10.9103153,6.254 9.2526,6.254 C7.59488475,6.254 6.2526,7.59628475 6.2526,9.254 C6.2526,9.80628475 5.80488475,10.254 5.2526,10.254 C4.70031525,10.254 4.2526,9.80628475 4.2526,9.254 C4.2526,6.49171525 6.49031525,4.254 9.2526,4.254 Z M2.1572,8.2501 C2.70948475,8.2501 3.1572,8.69781525 3.1572,9.2501 C3.1572,9.76293584 2.77115981,10.1856072 2.27382113,10.2433723 L2.1572,10.2501 L1.0002,10.2501 C0.44791525,10.2501 0.000199999998,9.80238475 0.000199999998,9.2501 C0.000199999998,8.73726416 0.38624019,8.31459284 0.883578875,8.25682773 L1.0002,8.2501 L2.1572,8.2501 Z M17.5002,8.2501 C18.0524847,8.2501 18.5002,8.69781525 18.5002,9.2501 C18.5002,9.76293584 18.1141598,10.1856072 17.6168211,10.2433723 L17.5002,10.2501 L16.3432,10.2501 C15.7909153,10.2501 15.3432,9.80238475 15.3432,9.2501 C15.3432,8.73726416 15.7292402,8.31459284 16.2265789,8.25682773 L16.3432,8.2501 L17.5002,8.2501 Z M4.02909944,2.62580461 L4.12330678,2.70899322 L4.94130678,3.52699322 C5.33183107,3.91751751 5.33183107,4.55068249 4.94130678,4.94120678 C4.58082282,5.30169074 4.01359176,5.32942028 3.62130056,5.02439539 L3.52709322,4.94120678 L2.70909322,4.12320678 C2.31856893,3.73268249 2.31856893,3.09951751 2.70909322,2.70899322 C3.06957718,2.34850926 3.63680824,2.32077972 4.02909944,2.62580461 Z M15.7908068,2.70899322 C16.1512907,3.06947718 16.1790203,3.63670824 15.8739954,4.02899944 L15.7908068,4.12320678 L14.9728068,4.94120678 C14.5822825,5.33173107 13.9491175,5.33173107 13.5585932,4.94120678 C13.1981093,4.58072282 13.1703797,4.01349176 13.4754046,3.62120056 L13.5585932,3.52699322 L14.3765932,2.70899322 C14.7671175,2.31846893 15.4002825,2.31846893 15.7908068,2.70899322 Z M9.2502,9.99999962e-05 C9.76303584,9.99999962e-05 10.1857072,0.38614019 10.2434723,0.883478875 L10.2502,1.0001 L10.2502,2.1571 C10.2502,2.70938475 9.80248475,3.1571 9.2502,3.1571 C8.73736416,3.1571 8.31469284,2.77105981 8.25692773,2.27372113 L8.2502,2.1571 L8.2502,1.0001 C8.2502,0.44781525 8.69791525,9.99999962e-05 9.2502,9.99999962e-05 Z" id="Combined-Shape"></path>
                                </g>
                            </g>
                        </g>
                    </g>
                </g>
            </g>
        </g>
    </g>
</svg>