<?xml version="1.0" encoding="UTF-8"?>
<svg width="19px" height="19px" viewBox="0 0 19 19" version="1.1" xmlns="http://www.w3.org/2000/svg" xmlns:xlink="http://www.w3.org/1999/xlink">
    <!-- Generator: Sketch 57.1 (83088) - https://sketch.com -->
    <title>Combined Shape</title>
    <desc>Created with Sketch.</desc>
    <g id="Flight" stroke="none" stroke-width="1" fill="none" fill-rule="evenodd">
        <g id="Flight_Search_result_details_Filter" transform="translate(-645.000000, -306.000000)" fill="#BCC9DC" fill-rule="nonzero">
            <g id="Flights" transform="translate(165.000000, 198.000000)">
                <g id="Group-35" transform="translate(435.000000, 57.000000)">
                    <g id="Group-36" transform="translate(0.000000, 23.000000)">
                        <g id="Group-11" transform="translate(0.000000, 22.000000)">
                            <g id="Sun-Copy" transform="translate(35.000000, 0.000000)">
                                <g id="Group-19" transform="translate(10.000000, 6.000000)">
                                    <path d="M9.25,15.343 C9.76283584,15.343 10.1855072,15.7290402 10.2432723,16.2263789 L10.25,16.343 L10.25,17.5 C10.25,18.0522847 9.80228475,18.5 9.25,18.5 C8.73716416,18.5 8.31449284,18.1139598 8.25672773,17.6166211 L8.25,17.5 L8.25,16.343 C8.25,15.7907153 8.69771525,15.343 9.25,15.343 Z M4.94160678,13.5588932 C5.30209074,13.9193772 5.32982028,14.4866082 5.02479539,14.8788994 L4.94160678,14.9731068 L4.12360678,15.7911068 C3.73308249,16.1816311 3.09991751,16.1816311 2.70939322,15.7911068 C2.34890926,15.4306228 2.32117972,14.8633918 2.62620461,14.4711006 L2.70939322,14.3768932 L3.52739322,13.5588932 C3.91791751,13.1683689 4.55108249,13.1683689 4.94160678,13.5588932 Z M14.8783994,13.4757046 L14.9726068,13.5588932 L15.7906068,14.3768932 C16.1811311,14.7674175 16.1811311,15.4005825 15.7906068,15.7911068 C15.4301228,16.1515907 14.8628918,16.1793203 14.4706006,15.8742954 L14.3763932,15.7911068 L13.5583932,14.9731068 C13.1678689,14.5825825 13.1678689,13.9494175 13.5583932,13.5588932 C13.9188772,13.1984093 14.4861082,13.1706797 14.8783994,13.4757046 Z M9.2539,4.25 C12.0151847,4.25 14.2539,6.48871525 14.2539,9.25 C14.2539,12.0112847 12.0151847,14.25 9.2539,14.25 C6.49261525,14.25 4.2539,12.0112847 4.2539,9.25 C4.2539,6.48871525 6.49261525,4.25 9.2539,4.25 Z M9.2539,6.25 C7.59718475,6.25 6.2539,7.59328475 6.2539,9.25 C6.2539,10.9067153 7.59718475,12.25 9.2539,12.25 C10.9106153,12.25 12.2539,10.9067153 12.2539,9.25 C12.2539,7.59328475 10.9106153,6.25 9.2539,6.25 Z M2.157,8.25 C2.70928475,8.25 3.157,8.69771525 3.157,9.25 C3.157,9.76283584 2.77095981,10.1855072 2.27362113,10.2432723 L2.157,10.25 L1,10.25 C0.44771525,10.25 -3.78364007e-13,9.80228475 -3.78364007e-13,9.25 C-3.78364007e-13,8.73716416 0.38604019,8.31449284 0.883378875,8.25672773 L1,8.25 L2.157,8.25 Z M17.5,8.25 C18.0522847,8.25 18.5,8.69771525 18.5,9.25 C18.5,9.76283584 18.1139598,10.1855072 17.6166211,10.2432723 L17.5,10.25 L16.343,10.25 C15.7907153,10.25 15.343,9.80228475 15.343,9.25 C15.343,8.73716416 15.7290402,8.31449284 16.2263789,8.25672773 L16.343,8.25 L17.5,8.25 Z M4.02891597,2.6263299 L4.12317417,2.70946087 L4.94117417,3.52646087 C5.33193724,3.91674624 5.3323245,4.5499111 4.94203913,4.94067417 C4.58177572,5.30137854 4.01456173,5.329455 3.62208403,5.0246701 L3.52782583,4.94153913 L2.70982583,4.12453913 C2.31906276,3.73425376 2.3186755,3.1010889 2.70896087,2.71032583 C3.06922428,2.34962146 3.63643827,2.321545 4.02891597,2.6263299 Z M15.7910391,2.71032583 C16.1513025,3.07103021 16.1786851,3.63827812 15.8734204,4.03038269 L15.7901742,4.12453913 L14.9721742,4.94153913 C14.5814111,5.3318245 13.9482462,5.33143724 13.5579609,4.94067417 C13.1976975,4.57996979 13.1703149,4.01272188 13.4755796,3.62061731 L13.5588258,3.52646087 L14.3768258,2.70946087 C14.7675889,2.3191755 15.4007538,2.31956276 15.7910391,2.71032583 Z M9.25,7.63833441e-14 C9.76283584,7.63833441e-14 10.1855072,0.38604019 10.2432723,0.883378875 L10.25,1 L10.25,2.157 C10.25,2.70928475 9.80228475,3.157 9.25,3.157 C8.73716416,3.157 8.31449284,2.77095981 8.25672773,2.27362113 L8.25,2.157 L8.25,1 C8.25,0.44771525 8.69771525,7.63833441e-14 9.25,7.63833441e-14 Z" id="Combined-Shape"></path>
                                </g>
                            </g>
                        </g>
                    </g>
                </g>
            </g>
        </g>
    </g>
</svg>