<?xml version="1.0" encoding="UTF-8"?>
<svg width="19px" height="16px" viewBox="0 0 19 16" version="1.1" xmlns="http://www.w3.org/2000/svg" xmlns:xlink="http://www.w3.org/1999/xlink">
    <!-- Generator: Sketch 57.1 (83088) - https://sketch.com -->
    <title>Combined Shape</title>
    <desc>Created with Sketch.</desc>
    <g id="Flight" stroke="none" stroke-width="1" fill="none" fill-rule="evenodd">
        <g id="Flight_Search_result_details_Filter" transform="translate(-681.000000, -307.000000)" fill="#BCC9DC" fill-rule="nonzero">
            <g id="Flights" transform="translate(165.000000, 198.000000)">
                <g id="Group-35" transform="translate(435.000000, 57.000000)">
                    <g id="Group-36" transform="translate(0.000000, 23.000000)">
                        <g id="Group-11" transform="translate(0.000000, 22.000000)">
                            <g id="Sun-Copy-2" transform="translate(71.000000, 0.000000)">
                                <g id="Group-15" transform="translate(10.000000, 7.000000)">
                                    <path d="M6.2539,11.8691 C6.42176291,11.8691 6.58622352,11.9113422 6.73245673,11.9910421 L6.83848236,12.0577656 L9.193,13.754 L11.0567332,12.117981 C11.2088251,11.9843057 11.3971404,11.9005885 11.5963035,11.876396 L11.7169,11.8691 L14.2539,11.8691 C14.8061847,11.8691 15.2539,12.3168153 15.2539,12.8691 C15.2539,13.3819358 14.8678598,13.8046072 14.3705211,13.8623723 L14.2539,13.8691 L12.094,13.869 L9.91606679,15.783219 C9.59774062,16.0629994 9.1420579,16.1090779 8.77766738,15.9103936 L8.67131764,15.8434344 L5.931,13.869 L4.2539,13.8691 C3.74106416,13.8691 3.31839284,13.4830598 3.26062773,12.9857211 L3.2539,12.8691 C3.2539,12.3562642 3.63994019,11.9335928 4.13727887,11.8758277 L4.2539,11.8691 L6.2539,11.8691 Z M9.2525,4.2549 C12.0150916,4.2549 14.2525,6.491922 14.2525,9.2549 C14.2525,9.80718475 13.8047847,10.2549 13.2525,10.2549 C12.7002153,10.2549 12.2525,9.80718475 12.2525,9.2549 C12.2525,7.59656884 10.9105994,6.2549 9.2525,6.2549 C7.5944006,6.2549 6.2525,7.59656884 6.2525,9.2549 C6.2525,9.80718475 5.80478475,10.2549 5.2525,10.2549 C4.70021525,10.2549 4.2525,9.80718475 4.2525,9.2549 C4.2525,6.491922 6.48990843,4.2549 9.2525,4.2549 Z M2.157,8.25 C2.70928475,8.25 3.157,8.69771525 3.157,9.25 C3.157,9.76283584 2.77095981,10.1855072 2.27362113,10.2432723 L2.157,10.25 L1,10.25 C0.44771525,10.25 -3.78364007e-13,9.80228475 -3.78364007e-13,9.25 C-3.78364007e-13,8.73716416 0.38604019,8.31449284 0.883378875,8.25672773 L1,8.25 L2.157,8.25 Z M17.5,8.25 C18.0522847,8.25 18.5,8.69771525 18.5,9.25 C18.5,9.76283584 18.1139598,10.1855072 17.6166211,10.2432723 L17.5,10.25 L16.343,10.25 C15.7907153,10.25 15.343,9.80228475 15.343,9.25 C15.343,8.73716416 15.7290402,8.31449284 16.2263789,8.25672773 L16.343,8.25 L17.5,8.25 Z M4.02939944,2.62570461 L4.12360678,2.70889322 L4.94160678,3.52689322 C5.33213107,3.91741751 5.33213107,4.55058249 4.94160678,4.94110678 C4.58112282,5.30159074 4.01389176,5.32932028 3.62160056,5.02429539 L3.52739322,4.94110678 L2.70939322,4.12310678 C2.31886893,3.73258249 2.31886893,3.09941751 2.70939322,2.70889322 C3.06987718,2.34840926 3.63710824,2.32067972 4.02939944,2.62570461 Z M15.7906068,2.70889322 C16.1510907,3.06937718 16.1788203,3.63660824 15.8737954,4.02889944 L15.7906068,4.12310678 L14.9726068,4.94110678 C14.5820825,5.33163107 13.9489175,5.33163107 13.5583932,4.94110678 C13.1979093,4.58062282 13.1701797,4.01339176 13.4752046,3.62110056 L13.5583932,3.52689322 L14.3763932,2.70889322 C14.7669175,2.31836893 15.4000825,2.31836893 15.7906068,2.70889322 Z M9.25,7.63833441e-14 C9.76283584,7.63833441e-14 10.1855072,0.38604019 10.2432723,0.883378875 L10.25,1 L10.25,2.157 C10.25,2.70928475 9.80228475,3.157 9.25,3.157 C8.73716416,3.157 8.31449284,2.77095981 8.25672773,2.27362113 L8.25,2.157 L8.25,1 C8.25,0.44771525 8.69771525,7.63833441e-14 9.25,7.63833441e-14 Z" id="Combined-Shape"></path>
                                </g>
                            </g>
                        </g>
                    </g>
                </g>
            </g>
        </g>
    </g>
</svg>