<?xml version="1.0" encoding="UTF-8"?>
<svg width="16px" height="16px" viewBox="0 0 16 16" version="1.1" xmlns="http://www.w3.org/2000/svg" xmlns:xlink="http://www.w3.org/1999/xlink">
    <!-- Generator: Sketch 57.1 (83088) - https://sketch.com -->
    <title>Stroke 1</title>
    <desc>Created with Sketch.</desc>
    <g id="Flight" stroke="none" stroke-width="1" fill="none" fill-rule="evenodd">
        <g id="Flight_Search_result_details_Filter" transform="translate(-717.000000, -307.000000)" fill="#BCC9DC" fill-rule="nonzero">
            <g id="Flights" transform="translate(165.000000, 198.000000)">
                <g id="Group-35" transform="translate(435.000000, 57.000000)">
                    <g id="Group-36" transform="translate(0.000000, 23.000000)">
                        <g id="Group-11" transform="translate(0.000000, 22.000000)">
                            <g id="Sun-Copy-3" transform="translate(106.000000, 0.000000)">
                                <g id="Stroke-2" transform="translate(11.000000, 7.000000)">
                                    <path d="M3.71358855,0.180106679 C1.40666269,1.77389812 0,4.40237065 0,7.26785113 C0,12.0189871 3.83856483,15.8708511 8.576,15.8708511 C11.4510002,15.8708511 14.0849852,14.4414568 15.6706534,12.1030907 C16.1508172,11.3949988 15.5778492,10.4500874 14.7279851,10.5484874 C9.88161484,11.1096157 7.15254685,9.83835281 5.89680733,7.26350722 C5.02404211,5.4739357 4.92887455,3.24599015 5.26892242,1.16404711 C5.41106668,0.293768869 4.439093,-0.321124326 3.71358855,0.180106679 Z M3.086,3.63085113 L3.09006472,3.82471496 C3.14052411,5.31951558 3.44301938,6.79473694 4.09919267,8.14019504 L4.21219521,8.36352684 C5.60223997,11.0126238 8.21759674,12.5471038 12.1446806,12.6676265 L12.357,12.6718511 L12.3405118,12.6841198 C11.2584849,13.4432009 9.95377591,13.8708511 8.576,13.8708511 C4.94468576,13.8708511 2,10.9159631 2,7.26785113 C2,5.98322036 2.36716146,4.76188418 3.0247453,3.72420843 L3.086,3.63085113 Z" id="Stroke-1"></path>
                                </g>
                            </g>
                        </g>
                    </g>
                </g>
            </g>
        </g>
    </g>
</svg>