<svg width="38" height="35" viewBox="0 0 38 35" fill="none" xmlns="http://www.w3.org/2000/svg">
<path d="M0.0769043 33.8193L13.0617 32.1908L21.4017 27.1504L30.5732 23.7709L34.817 20.1714L37.7637 18.9307V33.8193H0.0769043Z" fill="#E5F5FD"/>
<path d="M19.2845 11.1682L18.6877 14.5875H14.3452L15.4617 7.82865C15.662 6.6467 16.7821 5.85035 17.9644 6.05027C19.1463 6.25049 19.9421 7.37065 19.7425 8.5526L19.6549 9.05513" fill="#43CAF9"/>
<path d="M18.6877 14.5879L23.0302 15.8286L26.7523 22.0322L24.8913 23.2729L21.7895 18.31L15.6113 17.7518C15.1942 17.7136 14.8035 17.5307 14.5069 17.2344C14.0268 16.7555 13.8587 16.0461 14.0729 15.4024L14.3452 14.5879H18.6877Z" fill="#E5F5FD"/>
<path d="M18.4355 18.0051L19.0517 22.0304L14.9654 28.0002L13.0616 26.8264L16.2788 21.9375L14.6664 17.3711" fill="#E5F5FD"/>
<path d="M26.7524 22.0322L27.3988 22.6862L28.2052 22.4151C28.8443 22.2 29.5407 22.5163 29.7991 23.1391L30.1283 23.9357L25.8164 25.5245L24.8913 23.2729L26.7524 22.0322Z" fill="#E5F5FD"/>
<path d="M14.9656 28.0009H15.0367C16.0682 28.0012 16.9042 28.8376 16.9042 29.869L15.4681 30.7374L11.476 28.7012L13.0618 26.8271L14.9656 28.0009Z" fill="#E5F5FD"/>
<path d="M22.565 3.42076C22.565 4.96317 21.3146 6.21358 19.7722 6.21358C18.2298 6.21358 16.9793 4.96317 16.9793 3.42076C16.9793 1.87834 18.2298 0.62793 19.7722 0.62793C21.3146 0.62793 22.565 1.87834 22.565 3.42076Z" fill="#F5E0CD"/>
<path d="M14.8297 12.2646C14.4871 12.2794 14.1972 12.0141 14.1821 11.6715C14.1672 11.3289 14.4326 11.0387 14.7751 11.0239L15.4576 10.9618C16.486 10.8712 17.488 10.5859 18.4098 10.1212C18.716 9.96701 19.0892 10.09 19.2434 10.3962C19.3976 10.7025 19.2743 11.0757 18.9683 11.2298C17.9066 11.7645 16.7535 12.0928 15.5694 12.1973L14.8869 12.2594C14.8669 12.264 14.8485 12.2646 14.8297 12.2646Z" fill="#0378A3"/>
<path d="M10.8661 9.706L9.4436 9.40188C9.26367 9.36341 9.07587 9.39885 8.92229 9.50003C8.76872 9.6015 8.66209 9.75992 8.62635 9.94046L8.0278 12.9738C7.99145 13.1574 8.03174 13.3479 8.13897 13.5012C8.2465 13.6541 8.41189 13.7568 8.59667 13.7853L10.1061 14.0185L10.8661 9.706Z" fill="#43CAF9"/>
<path d="M25.1706 1.1822L22.9806 2.27419L21.8577 2.83851L18.055 4.73684L17.4655 5.02854C17.3786 5.07155 17.2834 5.09458 17.1865 5.0967C16.9493 5.0973 16.7325 4.9622 16.6283 4.74926C16.6052 4.70625 16.5886 4.66051 16.5786 4.61295C16.4332 4.2325 16.3596 3.82872 16.3614 3.42161C16.3629 1.99551 17.2513 0.720865 18.5887 0.225911C19.926 -0.269346 21.4303 0.11959 22.3602 1.20098L24.612 0.0717303C24.9189 -0.0806332 25.2909 0.0444685 25.4435 0.351013C25.5183 0.497318 25.5314 0.66725 25.4802 0.823552C25.429 0.97955 25.3175 1.10859 25.1706 1.1822Z" fill="#F8CF26"/>
<path d="M19.9285 10.2079L18.6877 10.1795L18.7108 9.18682C18.738 7.8828 17.8944 6.71993 16.6461 6.34129L15.1419 5.88723L15.5002 4.69922L17.0042 5.15328C18.7853 5.69458 19.9896 7.35422 19.9515 9.2156L19.9285 10.2079Z" fill="#0378A3"/>
<path d="M15.4617 7.82844L15.9867 5.04621C16.0057 4.94565 15.9827 4.84175 15.9234 4.75845C15.864 4.67515 15.7734 4.61942 15.6722 4.60457L12.7931 4.17838C12.2769 4.10235 11.7941 4.45069 11.7038 4.96443L10.1087 14.0217L14.3452 14.5873L15.4617 7.82844Z" fill="#E5F5FD"/>
<path d="M21.893 13.1402C21.6701 13.1405 21.4547 13.0605 21.2857 12.9151L16.8396 9.08939C16.45 8.75407 16.4061 8.16612 16.7414 7.77658C17.0771 7.38703 17.6647 7.34311 18.0543 7.67874L22.0308 11.1007L27.266 8.47902C27.5635 8.32696 27.9197 8.34605 28.1993 8.52931C28.4789 8.71257 28.6385 9.03153 28.6179 9.36503C28.5973 9.69854 28.3995 9.99539 28.0996 10.1426L22.3098 13.0417C22.1805 13.1066 22.0378 13.1405 21.893 13.1402Z" fill="#F0D0B4"/>
<path d="M37.5229 18.3582L34.5762 19.5989C34.5184 19.6238 34.4644 19.6571 34.4163 19.6977L30.4385 23.0712L30.3685 22.9013C29.9835 21.9789 28.9521 21.5103 28.0043 21.8274L27.5699 21.9738L27.2485 21.6487L25.7319 19.1213L27.4781 11.149L28.3796 10.6973C28.9339 10.4181 29.268 9.83496 29.2293 9.21551C29.1905 8.59575 28.7858 8.0593 28.2009 7.8512L28.5732 6.15218C28.6349 5.82231 28.4238 5.50305 28.0961 5.43156C27.768 5.35977 27.4427 5.56181 27.3615 5.88714L26.9056 7.96722L22.1245 10.3611L20.3255 8.81839L20.3534 8.65967C20.4573 8.0278 20.3389 7.37957 20.0184 6.82525C21.0825 6.75164 22.0509 6.18338 22.6334 5.2895C23.2159 4.39591 23.3452 3.2806 22.983 2.27737L25.1678 1.18659C25.4759 1.03392 25.6019 0.660434 25.4489 0.352376C25.2963 0.0443166 24.9225 -0.0813908 24.6147 0.0712756L22.3578 1.19961C21.1634 -0.204069 19.0691 -0.403989 17.6308 0.748581C16.1923 1.90115 15.9309 3.9885 17.0408 5.46034C16.8572 5.49729 16.6782 5.55272 16.5058 5.62603L16.5934 5.16318C16.6437 4.89662 16.5834 4.62098 16.4262 4.39985C16.269 4.17842 16.0285 4.03091 15.7601 3.99062L12.8818 3.56443C12.0322 3.43357 11.2346 4.00849 11.0907 4.85603L10.3668 8.9653L9.57406 8.79537C9.23147 8.72207 8.87374 8.78901 8.58112 8.98166C8.28851 9.17431 8.08526 9.47661 8.01741 9.82011L7.41886 12.8538C7.3501 13.2033 7.42674 13.5656 7.6312 13.857C7.83566 14.1487 8.15008 14.3441 8.50206 14.3986L10.0115 14.6318H10.0199L13.5164 15.1013L13.4828 15.2007C13.1905 16.0667 13.4162 17.0236 14.0647 17.6679C14.0847 17.6876 14.1083 17.7024 14.1268 17.7218L15.5859 21.8526L12.5598 26.4514L11.002 28.2976C10.8796 28.4424 10.8302 28.635 10.8675 28.821C10.905 29.0067 11.0253 29.1651 11.1943 29.2512L14.1931 30.7796L12.8546 31.5863L0 33.199L0.153878 34.43L13.1393 32.8016C13.2256 32.791 13.3089 32.7622 13.3832 32.7164L21.6723 27.7069L26.026 26.1027L30.3379 24.514L30.7841 24.3498C30.8519 24.3243 30.9149 24.2874 30.9701 24.2404L35.1408 20.7046L38 19.5011L37.5229 18.3582ZM27.5966 23.2726L28.4032 23.0015C28.7322 22.8922 29.0902 23.0542 29.225 23.3738L29.3083 23.5743L26.2562 24.6996L26.1629 24.7336L25.6598 23.5059L26.6736 22.8304L26.9602 23.1209C27.1262 23.2884 27.3727 23.3471 27.5966 23.2726ZM15.6677 17.1311C15.3118 17.099 14.9898 16.9058 14.7944 16.6065C14.5987 16.3072 14.5506 15.9349 14.6642 15.5957L14.7926 15.208H18.6008L22.6246 16.3581L24.4124 19.336L24.088 20.8154L22.3156 17.9811C22.2133 17.8157 22.0394 17.7079 21.8458 17.6894L15.6677 17.1311ZM18.1661 13.9672H15.0767L15.3645 12.2192L15.5674 12.2013C16.6091 12.1062 17.6275 11.8372 18.5805 11.4052L18.6089 11.4301L18.1661 13.9672ZM15.5741 10.9494L15.94 8.72843C16.0118 9.05163 16.1857 9.34333 16.4365 9.55961L17.5282 10.4989C16.8978 10.7288 16.2414 10.88 15.5741 10.9494ZM24.9955 25.1649L24.3539 25.4012L24.6114 24.2262L24.9955 25.1649ZM25.916 21.8459L25.3578 22.2182L25.0785 22.4042L25.0285 22.3236L25.3423 20.8899L25.916 21.8459ZM24.7995 17.5728L23.5618 15.5109C23.4809 15.3758 23.3516 15.2767 23.2001 15.2334L19.395 14.1441L19.7052 12.3724L20.8838 13.386C21.3582 13.7937 22.0306 13.8767 22.5898 13.5965L26.052 11.8632L24.7995 17.5728ZM27.5433 9.03618C27.6172 8.99862 27.7029 8.99257 27.7817 9.01862C27.8592 9.04436 27.9234 9.1004 27.9595 9.17371C28.0361 9.32637 27.9749 9.51236 27.8225 9.5896L22.0309 12.4897C21.9188 12.5436 21.7859 12.5266 21.6907 12.4469L19.0909 10.2078L17.2465 8.6212C17.1516 8.53911 17.1156 8.40825 17.1547 8.28921C17.1941 8.17017 17.301 8.08656 17.4258 8.07717H17.4488C17.523 8.07717 17.5948 8.10383 17.6511 8.15199L21.9409 11.8432L27.5433 9.03618ZM21.9446 3.42115C21.9479 4.3529 21.3548 5.18196 20.4721 5.48003C19.5895 5.77809 18.6153 5.47791 18.0531 4.73517L21.8516 2.83745C21.9094 3.02676 21.9406 3.22335 21.9446 3.42115ZM19.7733 1.2499C20.294 1.25202 20.7963 1.44255 21.187 1.78665L17.6157 3.56958C17.6157 3.5199 17.6009 3.47265 17.6009 3.42236C17.6021 2.22405 18.5729 1.25232 19.7715 1.2499H19.7733ZM17.8602 6.66319C18.442 6.75558 18.9179 7.17693 19.0803 7.74337L18.4599 7.20964C17.8265 6.66228 16.8724 6.71984 16.3093 7.33959C16.6443 6.82404 17.2543 6.55808 17.8602 6.66319ZM8.63777 13.0946L9.23662 10.0603L8.62747 9.94067L9.31538 10.0082L10.1514 10.1875L9.60132 13.313L8.69259 13.1727L8.63777 13.0946ZM12.313 5.0714C12.3469 4.88996 12.5171 4.76728 12.7001 4.79212L15.3272 5.18136L14.8495 7.71429V7.72792L13.8308 13.893L10.8296 13.4896L12.313 5.0714ZM16.8645 21.7317L15.6801 18.3776L17.8962 18.579L18.4018 21.8826L14.788 27.1617L13.9314 26.6337L16.7969 22.2788C16.9036 22.117 16.9287 21.9147 16.8645 21.7317ZM15.4432 30.0266L12.4556 28.5042L13.1902 27.6357L14.6399 28.5296C14.6887 28.5593 14.7417 28.5823 14.7968 28.5978C14.8514 28.6135 14.908 28.6214 14.9649 28.6214H15.0367C15.6008 28.6226 16.0939 29.0006 16.2417 29.5447L16.0506 29.6601L15.4432 30.0266ZM21.187 26.568C21.1501 26.5816 21.1143 26.5989 21.0804 26.6195L17.3228 28.8913C17.0686 28.3015 16.5967 27.8329 16.0051 27.5824L19.5655 22.3812C19.6546 22.2515 19.6909 22.0925 19.6667 21.9371L19.1702 18.6945L21.4284 18.8998L23.7102 22.5505L22.9745 25.9098L21.187 26.568Z" fill="#1C3C6B"/>
</svg>
