<svg width="32" height="32" viewBox="0 0 32 32" fill="none" xmlns="http://www.w3.org/2000/svg">
<g clip-path="url(#clip0_0_787)">
<path d="M14.9333 26.4V26.9333C14.9333 27.2279 14.6945 27.4667 14.4 27.4667H10.1333C9.83876 27.4667 9.59998 27.2279 9.59998 26.9333V24.8H13.3333C14.217 24.8 14.9333 25.5163 14.9333 26.4Z" fill="#B9C8DB"/>
<path d="M7.99999 30.1333V30.6667C7.99999 30.9612 7.76121 31.2 7.46666 31.2H3.19999C2.90544 31.2 2.66666 30.9612 2.66666 30.6667V28.5333H6.39999C7.28365 28.5333 7.99999 29.2497 7.99999 30.1333Z" fill="#B9C8DB"/>
<path d="M13.3333 26.4V26.9333C13.3333 27.2279 13.0945 27.4667 12.8 27.4667H10.1333C9.83876 27.4667 9.59998 27.2279 9.59998 26.9333V24.8H11.7333C12.617 24.8 13.3333 25.5163 13.3333 26.4Z" fill="#E5F5FD"/>
<path d="M6.39999 30.1333V30.6667C6.39999 30.9612 6.16121 31.2 5.86666 31.2H3.19999C2.90544 31.2 2.66666 30.9612 2.66666 30.6667V28.5333H4.79999C5.68365 28.5333 6.39999 29.2497 6.39999 30.1333Z" fill="#E5F5FD"/>
<path d="M32 30.1333V30.6667C32 30.9612 31.7612 31.2 31.4667 31.2H8V30.6667C8.2864 30.6667 8.4432 30.6779 8.61333 30.48C11.5733 27.04 11.1125 27.5467 11.232 27.4667H21.1893L24.9461 30.0373C25.1403 30.1744 24.6475 30.1333 32 30.1333Z" fill="#B9C8DB"/>
<path d="M30.4 30.1333V30.6667C30.4 30.9612 30.1612 31.2 29.8667 31.2H8V30.6667C8.2864 30.6667 8.4432 30.6779 8.61333 30.48C11.5733 27.04 11.1125 27.5467 11.232 27.4667H19.5893L22.6987 30.0373C22.8939 30.1749 22.3493 30.1333 30.4 30.1333Z" fill="#E5F5FD"/>
<path d="M8.73067 5.89866C8.53712 5.70501 8.27379 5.59737 8 5.6H4.49067C3.47139 4.36535 3.63037 2.54147 4.8479 1.5018C6.06543 0.462137 7.89171 0.590781 8.95147 1.79086C10.0112 2.99093 9.91296 4.8191 8.73067 5.89866Z" fill="#DFC49C"/>
<path d="M7.40799 5.59999H4.49065C3.86357 4.83448 3.66388 3.80476 3.95935 2.86034C4.25481 1.91591 5.00576 1.18362 5.95732 0.911987C6.91103 1.18121 7.6635 1.91513 7.95645 2.86182C8.2494 3.80851 8.04296 4.83916 7.40799 5.59999Z" fill="#FFE0B2"/>
<path d="M13.52 9.76532L11.84 11.8613L10.6667 10.688V16.2667H8.38934C8.59521 15.9157 8.53334 16.2667 8.53334 8.79998C8.8279 8.79998 9.06668 8.5612 9.06668 8.26665V6.66665C9.78646 6.56707 10.5129 6.79617 11.0453 7.29065L13.52 9.76532Z" fill="#43CAF9"/>
<path d="M13.3333 19.4667V24.8H9.59999L9.06666 20.5333C9.06666 20.2388 8.82788 20 8.53332 20C7.35519 20 7.35999 19.9771 7.19999 20.0747C7.03467 20.1681 6.93269 20.3435 6.93332 20.5333L6.39999 28.5333H2.66666V16.8H7.46666C7.84735 16.7996 8.19898 16.5964 8.38932 16.2667H10.1333C11.9006 16.2667 13.3333 17.6994 13.3333 19.4667Z" fill="#B9C8DB"/>
<path d="M11.7333 19.4667V24.8H9.59999L9.06666 20.5333C9.06666 20.2388 8.82788 20 8.53332 20C7.35519 20 7.35999 19.9771 7.19999 20.0747C7.03679 19.9765 7.02666 20 5.86666 20C5.5721 20 5.33332 20.2388 5.33332 20.5333L4.79999 28.5333H2.66666V16.8H5.86666C6.24735 16.7996 6.59898 16.5964 6.78932 16.2667H8.53332C10.3006 16.2667 11.7333 17.6994 11.7333 19.4667Z" fill="#E5F5FD"/>
<path d="M8.53332 8.79999C8.53332 16.2309 8.59518 15.9157 8.38932 16.2667C8.19897 16.5963 7.84734 16.7996 7.46665 16.8H2.13332C1.54494 16.7982 1.06841 16.3217 1.06665 15.7333V8.79999H8.53332Z" fill="#00B8F8"/>
<path d="M6.93332 8.79999C6.93332 16.2309 6.99518 15.9157 6.78932 16.2667C6.59897 16.5963 6.24734 16.7996 5.86665 16.8H2.13332C1.54494 16.7982 1.06841 16.3217 1.06665 15.7333V8.79999H6.93332Z" fill="#43CAF9"/>
<path d="M19.2 12.7787V26.4C19.2 26.9891 18.7224 27.4667 18.1333 27.4667C17.5442 27.4667 17.0667 26.9891 17.0667 26.4V13.0667H18.3253C18.6393 13.0615 18.9443 12.9611 19.2 12.7787Z" fill="#B9C8DB"/>
<path d="M28.8 6.13332C28.7972 7.50068 27.7606 8.64435 26.4001 8.78111C25.0396 8.91788 23.7961 8.00343 23.5211 6.66399C23.2462 5.32454 24.029 3.9942 25.3334 3.58398C26.1442 3.3319 27.0265 3.48002 27.7106 3.98306C28.3946 4.4861 28.799 5.28422 28.8 6.13332Z" fill="#FDD834"/>
<path d="M25.3333 8.68265C26.3643 8.68265 27.2 7.54128 27.2 6.13332C27.2 4.72536 26.3643 3.58398 25.3333 3.58398C24.3024 3.58398 23.4667 4.72536 23.4667 6.13332C23.4667 7.54128 24.3024 8.68265 25.3333 8.68265Z" fill="#FFEB3A"/>
<path d="M30.5494 24.8H19.2V23.8666L22.3253 18.4H27.808L31.008 24C31.103 24.1645 31.1033 24.3671 31.0088 24.5319C30.9143 24.6967 30.7393 24.7988 30.5494 24.8Z" fill="#00B8F8"/>
<path d="M28.9493 24.8H19.2V23.8666L22.3253 18.4H26.208L29.408 24C29.503 24.1645 29.5033 24.3671 29.4088 24.5319C29.3143 24.6967 29.1393 24.7988 28.9493 24.8Z" fill="#43CAF9"/>
<path d="M8.53332 8.79999V10.9333C8.53332 11.817 7.81697 12.5333 6.93332 12.5333H2.66665C1.78299 12.5333 1.06665 11.817 1.06665 10.9333V8.79999H8.53332Z" fill="#00B8F8"/>
<path d="M6.93332 8.79999V10.9333C6.93332 11.817 6.21697 12.5333 5.33332 12.5333H2.66665C1.783 12.5333 1.06665 11.817 1.06665 10.9333V8.79999H6.93332Z" fill="#43CAF9"/>
<path d="M9.06666 6.66664V8.26664C9.06666 8.56119 8.82788 8.79997 8.53332 8.79997H1.06666C0.772107 8.79997 0.533325 8.56119 0.533325 8.26664V6.66664C0.535082 6.07827 1.01162 5.60173 1.59999 5.59998H7.99999C8.58836 5.60173 9.0649 6.07827 9.06666 6.66664Z" fill="#00B8F8"/>
<path d="M7.46666 6.66664V8.26664C7.46666 8.56119 7.22788 8.79997 6.93333 8.79997H1.06666C0.772107 8.79997 0.533325 8.56119 0.533325 8.26664V6.66664C0.535082 6.07827 1.01162 5.60173 1.59999 5.59998H6.39999C6.98837 5.60173 7.4649 6.07827 7.46666 6.66664Z" fill="#43CAF9"/>
<path d="M17.0666 10.4V13.0667H13.9306C12.9093 13.0667 12.448 12.4693 11.84 11.8613L13.52 9.76532C13.977 10.2224 14.0848 10.4 14.3733 10.4H17.0666Z" fill="#FFE0B2"/>
<path d="M19.728 11.872C19.6308 12.5682 19.0281 13.0816 18.3253 13.0667H17.0667V10.4L18.4 10.4C18.7781 10.3995 19.1386 10.5595 19.3919 10.8402C19.6451 11.1209 19.7673 11.496 19.728 11.872Z" fill="#DFC49C"/>
<path d="M27.808 18.4H22.3253C24.6597 14.3083 24.1387 15.2134 24.6027 14.4107C24.6974 14.2436 24.8746 14.1403 25.0667 14.1403C25.2587 14.1403 25.436 14.2436 25.5307 14.4107L27.808 18.4Z" fill="#CFD8DC"/>
<path d="M26.208 18.4H22.3253L24.2667 14.9973L26.208 18.4Z" fill="#F5F5F5"/>
<path d="M5.33334 9.86664H4.26667C3.97212 9.86664 3.73334 10.1054 3.73334 10.4C3.73334 10.6945 3.97212 10.9333 4.26667 10.9333H5.33334C5.62789 10.9333 5.86667 10.6945 5.86667 10.4C5.86667 10.1054 5.62789 9.86664 5.33334 9.86664Z" fill="#1C3C6B"/>
<path d="M22.9333 6.13335C22.9333 7.90066 24.366 9.33335 26.1333 9.33335C27.9007 9.33335 29.3333 7.90066 29.3333 6.13335C29.3333 4.36604 27.9007 2.93335 26.1333 2.93335C24.3668 2.93511 22.9351 4.36677 22.9333 6.13335ZM26.1333 4.00002C27.3116 4.00002 28.2667 4.95514 28.2667 6.13335C28.2667 7.31156 27.3116 8.26668 26.1333 8.26668C24.9551 8.26668 24 7.31156 24 6.13335C24 4.95514 24.9551 4.00002 26.1333 4.00002Z" fill="#1C3C6B"/>
<path d="M26.6666 1.2848V0.799996C26.6666 0.505444 26.4279 0.266663 26.1333 0.266663C25.8388 0.266663 25.6 0.505444 25.6 0.799996V1.2848C25.6 1.57935 25.8388 1.81813 26.1333 1.81813C26.4279 1.81813 26.6666 1.57935 26.6666 1.2848Z" fill="#1C3C6B"/>
<path d="M25.6 10.9819V11.4667C25.6 11.7612 25.8388 12 26.1333 12C26.4279 12 26.6666 11.7612 26.6666 11.4667V10.9819C26.6666 10.6873 26.4279 10.4485 26.1333 10.4485C25.8388 10.4485 25.6 10.6873 25.6 10.9819Z" fill="#1C3C6B"/>
<path d="M31.4667 5.59998H30.9819C30.6873 5.59998 30.4485 5.83876 30.4485 6.13331C30.4485 6.42786 30.6873 6.66664 30.9819 6.66664H31.4667C31.7612 6.66664 32 6.42786 32 6.13331C32 5.83876 31.7612 5.59998 31.4667 5.59998Z" fill="#1C3C6B"/>
<path d="M21.2848 6.66664C21.5793 6.66664 21.8181 6.42786 21.8181 6.13331C21.8181 5.83876 21.5793 5.59998 21.2848 5.59998H20.8C20.5054 5.59998 20.2667 5.83876 20.2667 6.13331C20.2667 6.42786 20.5054 6.66664 20.8 6.66664H21.2848Z" fill="#1C3C6B"/>
<path d="M30.2816 1.98507C30.0734 1.77687 29.7358 1.77687 29.5275 1.98507L29.1851 2.32747C29.0326 2.48 28.987 2.70936 29.0695 2.90862C29.1521 3.10788 29.3465 3.23783 29.5622 3.23787C29.8288 3.23787 29.9195 3.10134 30.2816 2.7392C30.4898 2.53094 30.4898 2.19334 30.2816 1.98507Z" fill="#1C3C6B"/>
<path d="M21.9851 10.2816C22.1933 10.4898 22.5309 10.4898 22.7392 10.2816L23.0816 9.93919C23.2837 9.72992 23.2808 9.39727 23.0751 9.19155C22.8694 8.98582 22.5367 8.98293 22.3275 9.18505L21.9851 9.52745C21.7769 9.73572 21.7769 10.0733 21.9851 10.2816Z" fill="#1C3C6B"/>
<path d="M29.9392 9.18505C29.7299 8.98293 29.3973 8.98582 29.1915 9.19155C28.9858 9.39727 28.9829 9.72992 29.1851 9.93919C29.4923 10.2464 29.6203 10.4379 29.9045 10.4379C30.1202 10.4378 30.3146 10.3079 30.3971 10.1086C30.4797 9.90934 30.4341 9.67998 30.2816 9.52745L29.9392 9.18505Z" fill="#1C3C6B"/>
<path d="M22.7392 1.98504C22.5299 1.78292 22.1973 1.78581 21.9915 1.99154C21.7858 2.19726 21.7829 2.5299 21.985 2.73917C22.2922 3.04637 22.4202 3.23784 22.7045 3.23784C22.9202 3.23779 23.1146 3.10785 23.1971 2.90859C23.2797 2.70933 23.2341 2.47997 23.0816 2.32744L22.7392 1.98504Z" fill="#1C3C6B"/>
<path d="M31.4667 29.5999C24.8848 29.5999 25.2981 29.6421 25.0997 29.5018L21.92 27.2287C21.6491 27.0358 21.3246 26.9325 20.992 26.9333H19.6336C19.7648 26.5658 19.7317 26.633 19.7317 24.0111L22.6336 18.9333H27.5008L31.0037 25.0666C31.0958 25.2369 31.2728 25.3439 31.4664 25.3463C31.6599 25.3487 31.8395 25.2461 31.9357 25.0781C32.0319 24.9102 32.0296 24.7033 31.9296 24.5375L25.9915 14.1424C25.8009 13.8106 25.4473 13.6063 25.0647 13.607C24.6821 13.6076 24.3291 13.8131 24.1397 14.1456L19.7333 21.8607V13.0074C20.2559 12.4744 20.4064 11.6792 20.1147 10.9921C19.823 10.305 19.1465 9.86091 18.4 9.86662C10.2864 9.86662 17.5403 9.86662 14.3787 9.86662L11.424 6.91195C10.9133 6.40558 10.221 6.1251 9.50187 6.13329C9.47844 6.06853 9.45101 6.0053 9.41974 5.94395C10.5072 4.63849 10.4864 2.73673 9.37054 1.45542C8.25472 0.1741 6.37387 -0.10789 4.93135 0.789863C3.48883 1.68761 2.91119 3.49964 3.568 5.06662H1.6C0.716344 5.06662 0 5.78296 0 6.66662V8.26662C0.001144 8.64599 0.204399 8.996 0.533333 9.18502V15.7333C0.533333 16.6169 1.24968 17.3333 2.13333 17.3333V30.6666H0.533333C0.238781 30.6666 0 30.9054 0 31.1999C0 31.4945 0.238781 31.7333 0.533333 31.7333H7.50934C7.97666 31.733 8.42051 31.5284 8.72427 31.1733L11.2843 28.1866C11.3869 28.0692 11.5348 28.0013 11.6907 27.9999C21.7893 27.9999 21.0944 27.9525 21.3003 28.0981L24.48 30.3711C24.7509 30.5641 25.0754 30.6674 25.408 30.6666H31.4667C31.7612 30.6666 32 30.4278 32 30.1333C32 29.8387 31.7612 29.5999 31.4667 29.5999ZM25.0667 14.6752L26.8912 17.8666H23.2437L25.0667 14.6752ZM17.7515 26.7695C17.653 26.672 17.5983 26.5386 17.6 26.3999V13.6C17.9558 13.6228 18.3129 13.6123 18.6667 13.5685V26.3999C18.6656 26.6164 18.5338 26.8107 18.3331 26.8918C18.1324 26.9728 17.9026 26.9245 17.7515 26.7695ZM18.9936 11.1962C19.2087 11.4435 19.2534 11.7961 19.1066 12.0891C18.9597 12.3822 18.6506 12.5576 18.3237 12.5333H17.6V10.9333C18.4624 10.9333 18.7029 10.8768 18.9936 11.1968V11.1962ZM16.5333 10.9333V12.5333H13.9307C13.3888 12.5133 12.8842 12.2524 12.5547 11.8218L13.5637 10.5632L13.6229 10.6224C13.8225 10.8206 14.0921 10.9323 14.3733 10.9333H16.5333ZM12.8048 9.80422L11.7963 11.0634L11.0443 10.3114C10.8919 10.1586 10.6624 10.1127 10.4629 10.1952C10.2635 10.2776 10.1334 10.4721 10.1333 10.688V15.7333H9.06667V9.18502C9.3956 8.996 9.59886 8.64599 9.6 8.26662V7.20635C10.0006 7.22188 10.381 7.38639 10.6667 7.66769L12.8048 9.80422ZM2.66667 12C2.07756 12 1.6 11.5224 1.6 10.9333V9.33329H8V10.9333C8 11.5224 7.52244 12 6.93333 12H2.66667ZM6.75733 1.33329C7.67281 1.33385 8.50778 1.85653 8.90827 2.67976C9.30877 3.50298 9.20463 4.48253 8.64 5.20315C8.22827 5.02129 8.31307 5.06662 4.76907 5.06662C4.27505 4.33189 4.22642 3.38462 4.6426 2.60315C5.05878 1.82169 5.87196 1.33339 6.75733 1.33329ZM1.06667 6.66662C1.06667 6.37207 1.30545 6.13329 1.6 6.13329H8C8.29455 6.13329 8.53333 6.37207 8.53333 6.66662V8.26662H1.06667V6.66662ZM1.6 15.7333V12.7701C1.92285 12.962 2.29107 13.0644 2.66667 13.0666V14.1333C2.66667 14.4278 2.90545 14.6666 3.2 14.6666C3.49455 14.6666 3.73333 14.4278 3.73333 14.1333V13.0666H5.86667V14.1333C5.86667 14.4278 6.10545 14.6666 6.4 14.6666C6.69455 14.6666 6.93333 14.4278 6.93333 14.1333V13.0666C7.30894 13.0644 7.67715 12.962 8 12.7701C8 15.9664 8.02987 15.8261 7.92907 15.9973C7.83438 16.1635 7.65795 16.2663 7.46667 16.2666H2.13333C1.83878 16.2666 1.6 16.0278 1.6 15.7333ZM8.20427 17.1466C8.37097 17.0525 8.52388 16.9359 8.65867 16.7999H10.1333C11.6054 16.8017 12.7982 17.9946 12.8 19.4666V24.2666H10.0709L9.6 20.4949C9.57932 19.9208 9.10776 19.4662 8.53333 19.4666H7.46667C6.88945 19.4623 6.4151 19.921 6.4 20.4981L5.9008 27.9999H3.2V17.3333C7.88533 17.3333 7.74667 17.3866 8.20427 17.1466ZM3.2 30.6666V29.0666H6.4C6.9891 29.0666 7.46667 29.5442 7.46667 30.1333V30.6666H3.2ZM8.4992 29.7978C8.36688 28.9757 7.76702 28.3065 6.96427 28.0853L7.46667 20.5333H8.53333C8.53343 20.5554 8.53485 20.5775 8.5376 20.5994C9.15733 25.6805 9.06667 24.2885 9.06667 26.9333C9.06935 27.4875 9.49605 27.9474 10.0485 27.9914L8.4992 29.7978ZM10.1333 26.9333V25.3333H13.3333C13.9224 25.3333 14.4 25.8108 14.4 26.3999V26.9333H10.1333ZM13.8667 24.3423V19.4666C13.862 17.82 12.7783 16.3713 11.2 15.9018V11.9754L12.0443 12.8197C12.5458 13.318 13.2237 13.5983 13.9307 13.6H16.5333C16.5333 27.6053 16.4923 26.5423 16.6299 26.9333H15.4667V26.3999C15.463 25.4301 14.8057 24.5848 13.8667 24.3423Z" fill="#1C3C6B"/>
</g>
<defs>
<clipPath id="clip0_0_787">
<rect width="32" height="32" fill="white"/>
</clipPath>
</defs>
</svg>
