<svg width="37" height="36" viewBox="0 0 37 36" fill="none" xmlns="http://www.w3.org/2000/svg">
<path d="M31.8982 4.76715C32.0467 4.76726 32.1893 4.70862 32.2947 4.60402L33.445 3.45654C33.5016 3.40548 33.5472 3.34346 33.579 3.27424C33.6109 3.20502 33.6284 3.13005 33.6304 3.05388C33.6324 2.97771 33.6189 2.90193 33.5907 2.83113C33.5626 2.76033 33.5203 2.69599 33.4665 2.64202C33.4127 2.58804 33.3485 2.54556 33.2778 2.51714C33.2071 2.48873 33.1314 2.47497 33.0552 2.47671C32.979 2.47845 32.904 2.49565 32.8347 2.52726C32.7654 2.55887 32.7032 2.60424 32.6519 2.66062L31.5101 3.80529C31.4309 3.88379 31.3769 3.98405 31.3548 4.09333C31.3327 4.20261 31.3436 4.31598 31.3861 4.41905C31.4286 4.52212 31.5008 4.61024 31.5935 4.67222C31.6861 4.73419 31.7951 4.76723 31.9066 4.76715H31.8982Z" fill="#1C3C6B"/>
<path d="M27.4095 2.78714C27.5587 2.78714 27.7018 2.72788 27.8072 2.62239C27.9127 2.5169 27.972 2.37383 27.972 2.22465L27.9551 0.562491C27.9551 0.413309 27.8959 0.270237 27.7904 0.16475C27.6849 0.0592623 27.5418 0 27.3926 0V0C27.2434 0 27.1004 0.0592623 26.9949 0.16475C26.8894 0.270237 26.8301 0.413309 26.8301 0.562491L26.8498 2.22465C26.8498 2.37335 26.9087 2.51599 27.0136 2.6214C27.1185 2.72681 27.2608 2.7864 27.4095 2.78714Z" fill="#1C3C6B"/>
<path d="M33.2369 8.7412C33.2369 8.88798 33.2942 9.02896 33.3967 9.13405C33.4991 9.23914 33.6386 9.30002 33.7854 9.30369L35.4334 9.34588H35.4475C35.5967 9.34588 35.7398 9.28662 35.8453 9.18113C35.9507 9.07564 36.01 8.93257 36.01 8.78339C36.01 8.63421 35.9507 8.49113 35.8453 8.38565C35.7398 8.28016 35.5967 8.2209 35.4475 8.2209L33.7994 8.17871C33.6502 8.17871 33.5072 8.23797 33.4017 8.34346C33.2962 8.44895 33.2369 8.59202 33.2369 8.7412Z" fill="#1C3C6B"/>
<path d="M33.6194 26.859V14.6249L24.9008 7.03125L19.8384 11.2499L19.4165 14.203L15.6197 20.2498V26.859H33.6194Z" fill="#E5F5FD"/>
<path d="M29.6257 3.29294C29.7641 3.34843 29.9188 3.34672 30.056 3.28819C30.1931 3.22965 30.3013 3.11907 30.357 2.98076L30.9701 1.45922C30.9978 1.39071 31.0117 1.31741 31.0111 1.24351C31.0105 1.16962 30.9953 1.09657 30.9664 1.02853C30.9376 0.960501 30.8956 0.898819 30.8429 0.847009C30.7902 0.795199 30.7278 0.754276 30.6593 0.726575C30.5908 0.698875 30.5175 0.68494 30.4436 0.685567C30.3697 0.686194 30.2966 0.701369 30.2286 0.730228C30.1606 0.759086 30.0989 0.801062 30.0471 0.853758C29.9953 0.906454 29.9544 0.968839 29.9267 1.03735L29.3135 2.55889C29.2856 2.62756 29.2716 2.70108 29.2722 2.7752C29.2728 2.84933 29.288 2.92261 29.317 2.99082C29.346 3.05904 29.3882 3.12085 29.4412 3.17269C29.4942 3.22454 29.5569 3.26541 29.6257 3.29294Z" fill="#1C3C6B"/>
<rect x="18.5728" y="19.6875" width="4.21868" height="7.31238" fill="#43CAF9"/>
<rect x="26.1664" y="19.9688" width="3.65619" height="2.53121" fill="#43CAF9"/>
<path d="M32.7729 6.52228C32.8274 6.66092 32.9348 6.77226 33.0714 6.83184C33.2079 6.89142 33.3626 6.89439 33.5013 6.84008L35.0172 6.24384C35.1458 6.1824 35.2463 6.07443 35.2983 5.94176C35.3504 5.80909 35.3501 5.66161 35.2976 5.52912C35.2451 5.39662 35.1443 5.289 35.0155 5.22798C34.8867 5.16697 34.7396 5.15712 34.6038 5.20042L33.0879 5.79666C32.9504 5.85179 32.8402 5.9589 32.7813 6.09475C32.7223 6.23059 32.7193 6.38422 32.7729 6.52228Z" fill="#1C3C6B"/>
<circle cx="24.9008" cy="13.3593" r="1.82809" fill="#43CAF9"/>
<path d="M34.6713 12.33C34.8077 12.3869 34.9611 12.3878 35.0982 12.3325C35.2353 12.2772 35.3451 12.1701 35.4039 12.0344C35.4627 11.8988 35.4657 11.7454 35.4123 11.6076C35.3588 11.4697 35.2533 11.3584 35.1184 11.2978L33.5857 10.6312C33.4492 10.5743 33.2958 10.5734 33.1587 10.6287C33.0216 10.684 32.9118 10.7911 32.853 10.9268C32.7942 11.0624 32.7912 11.2158 32.8446 11.3536C32.8981 11.4915 33.0036 11.6028 33.1385 11.6634L34.6713 12.33Z" fill="#1C3C6B"/>
<path d="M24.3636 2.9277C24.3935 2.99528 24.4365 3.05632 24.49 3.10731C24.5435 3.15831 24.6065 3.19827 24.6754 3.22491C24.7444 3.25154 24.8179 3.26434 24.8918 3.26257C24.9657 3.26079 25.0385 3.24448 25.1061 3.21457C25.1737 3.18465 25.2347 3.14171 25.2857 3.08821C25.3367 3.03471 25.3767 2.97168 25.4033 2.90273C25.4299 2.83379 25.4427 2.76027 25.441 2.68638C25.4392 2.61249 25.4229 2.53967 25.393 2.47208L24.7124 0.933666C24.6824 0.866078 24.6395 0.805043 24.586 0.754048C24.5325 0.703053 24.4695 0.663095 24.4005 0.636457C24.3316 0.609818 24.2581 0.597021 24.1842 0.598795C24.1103 0.600569 24.0375 0.61688 23.9699 0.646796C23.9023 0.676712 23.8412 0.719648 23.7902 0.773152C23.7393 0.826656 23.6993 0.889681 23.6727 0.958627C23.646 1.02757 23.6332 1.10109 23.635 1.17498C23.6368 1.24888 23.6531 1.3217 23.683 1.38928L24.3636 2.9277Z" fill="#1C3C6B"/>
<path d="M0.573073 27.5615H4.79175C4.94093 27.5615 5.08401 27.5022 5.18949 27.3968C5.29498 27.2913 5.35424 27.1482 5.35424 26.999C5.35424 26.8498 5.29498 26.7068 5.18949 26.6013C5.08401 26.4958 4.94093 26.4365 4.79175 26.4365H0.573073C0.423891 26.4365 0.280819 26.4958 0.175332 26.6013C0.0698442 26.7068 0.010582 26.8498 0.010582 26.999C0.010582 27.1482 0.0698442 27.2913 0.175332 27.3968C0.280819 27.5022 0.423891 27.5615 0.573073 27.5615Z" fill="#1C3C6B"/>
<path d="M31.0882 9.984L25.4633 5.20283C26.4945 4.64034 28.8664 3.96535 30.1039 5.76532C31.3413 7.56529 31.2757 9.32776 31.0882 9.984Z" fill="#E5F5FD"/>
<path d="M0.573073 25.3125H1.9793C2.12848 25.3125 2.27155 25.2532 2.37704 25.1477C2.48253 25.0422 2.54179 24.8992 2.54179 24.75C2.54179 24.6008 2.48253 24.4577 2.37704 24.3522C2.27155 24.2468 2.12848 24.1875 1.9793 24.1875H0.573073C0.423891 24.1875 0.280819 24.2468 0.175332 24.3522C0.0698442 24.4577 0.010582 24.6008 0.010582 24.75C0.010582 24.8992 0.0698442 25.0422 0.175332 25.1477C0.280819 25.2532 0.423891 25.3125 0.573073 25.3125Z" fill="#1C3C6B"/>
<path d="M31.676 10.5103C32.0157 9.64929 32.0995 8.70849 31.9174 7.80098C31.7353 6.89346 31.295 6.05783 30.6495 5.39447C29.8049 4.52625 28.6578 4.01761 27.4474 3.97464C26.2369 3.93167 25.0566 4.3577 24.1527 5.16385C24.4229 5.0664 24.7135 5.03954 24.997 5.0858C25.2805 5.13206 25.5475 5.24993 25.7727 5.42822C26.4464 5.11668 27.2003 5.0224 27.93 5.15846C28.6597 5.29452 29.3289 5.65418 29.8451 6.18759C30.2915 6.64657 30.6102 7.21426 30.7695 7.83438C30.9289 8.45451 30.9234 9.10551 30.7535 9.72284L31.676 10.5103Z" fill="#1C3C6B"/>
<path d="M25.8851 19.6875V22.4999C25.8851 22.6491 25.9444 22.7922 26.0499 22.8977C26.1554 23.0032 26.2985 23.0624 26.4476 23.0624H29.8226C29.9718 23.0624 30.1148 23.0032 30.2203 22.8977C30.3258 22.7922 30.3851 22.6491 30.3851 22.4999V19.6875C30.3851 19.5383 30.3258 19.3952 30.2203 19.2897C30.1148 19.1843 29.9718 19.125 29.8226 19.125H26.4476C26.2985 19.125 26.1554 19.1843 26.0499 19.2897C25.9444 19.3952 25.8851 19.5383 25.8851 19.6875ZM27.0101 20.25H29.2601V21.9375H27.0101V20.25Z" fill="#1C3C6B"/>
<path d="M24.7602 11.25C24.3152 11.25 23.8802 11.382 23.5102 11.6292C23.1402 11.8764 22.8518 12.2278 22.6815 12.6389C22.5112 13.0501 22.4666 13.5025 22.5534 13.9389C22.6403 14.3754 22.8546 14.7763 23.1692 15.0909C23.4839 15.4056 23.8848 15.6199 24.3212 15.7067C24.7577 15.7935 25.2101 15.749 25.6212 15.5787C26.0323 15.4084 26.3837 15.12 26.631 14.75C26.8782 14.38 27.0101 13.945 27.0101 13.5C27.0101 12.9032 26.7731 12.3309 26.3511 11.909C25.9292 11.487 25.3569 11.25 24.7602 11.25ZM24.7602 14.6249C24.5377 14.6249 24.3202 14.559 24.1352 14.4354C23.9502 14.3117 23.806 14.136 23.7208 13.9305C23.6357 13.7249 23.6134 13.4987 23.6568 13.2805C23.7002 13.0623 23.8074 12.8618 23.9647 12.7045C24.122 12.5471 24.3225 12.44 24.5407 12.3966C24.7589 12.3532 24.9851 12.3755 25.1907 12.4606C25.3963 12.5458 25.572 12.69 25.6956 12.875C25.8192 13.06 25.8852 13.2775 25.8852 13.5C25.8852 13.7983 25.7666 14.0845 25.5557 14.2954C25.3447 14.5064 25.0585 14.6249 24.7602 14.6249Z" fill="#1C3C6B"/>
<path d="M19.4165 16.875C19.2673 16.875 19.1243 16.9343 19.0188 17.0397C18.9133 17.1452 18.854 17.2883 18.854 17.4375C18.854 17.5867 18.9133 17.7297 19.0188 17.8352C19.1243 17.9407 19.2673 18 19.4165 18H22.229C22.3782 18 22.5212 17.9407 22.6267 17.8352C22.7322 17.7297 22.7915 17.5867 22.7915 17.4375C22.7915 17.2883 22.7322 17.1452 22.6267 17.0397C22.5212 16.9343 22.3782 16.875 22.229 16.875H19.4165Z" fill="#1C3C6B"/>
<path d="M15.1978 20.2496V26.437H13.651C13.5018 26.437 13.3587 26.4963 13.2532 26.6018C13.1478 26.7073 13.0885 26.8504 13.0885 26.9995C13.0885 27.1487 13.1478 27.2918 13.2532 27.3973C13.3587 27.5028 13.5018 27.562 13.651 27.562H35.4475C35.5967 27.562 35.7398 27.5028 35.8452 27.3973C35.9507 27.2918 36.01 27.1487 36.01 26.9995C36.01 26.8504 35.9507 26.7073 35.8452 26.6018C35.7398 26.4963 35.5967 26.437 35.4475 26.437H34.3225V15.7638L34.7978 16.1744C34.8515 16.2324 34.9167 16.2785 34.9893 16.3096C35.062 16.3407 35.1403 16.3562 35.2193 16.355C35.2983 16.3538 35.3762 16.336 35.4479 16.3027C35.5195 16.2694 35.5833 16.2214 35.6352 16.1617C35.6871 16.1021 35.7258 16.0323 35.7488 15.9567C35.7719 15.8811 35.7788 15.8015 35.769 15.7231C35.7593 15.6447 35.7331 15.5693 35.6923 15.5016C35.6514 15.434 35.5968 15.3758 35.5319 15.3307L25.0949 6.33082C24.9926 6.24216 24.8618 6.19336 24.7264 6.19336C24.5911 6.19336 24.4603 6.24216 24.358 6.33082L20.6343 9.56233C20.811 9.91828 20.9587 10.2879 21.0759 10.6676L24.7321 7.49798L33.1975 14.8104V24.1871H23.9164V19.6872C23.9164 19.538 23.8572 19.3949 23.7517 19.2894C23.6462 19.1839 23.5031 19.1247 23.3539 19.1247H18.2915C18.1424 19.1247 17.9993 19.1839 17.8938 19.2894C17.7883 19.3949 17.729 19.538 17.729 19.6872V26.437H16.3228V19.1612C15.9954 19.5702 15.6174 19.9359 15.1978 20.2496ZM33.1975 25.3121V26.437H23.9164V25.3121H33.1975ZM18.854 20.2496H22.7915V26.437H18.854V20.2496Z" fill="#1C3C6B"/>
<path d="M0.010582 34.3117V29.1087C0.666821 29.1555 2.06367 29.3618 2.40117 29.8118C2.82304 30.3743 4.22926 30.3743 4.79175 30.093C5.24175 29.868 6.47923 29.343 7.04172 29.1087C6.85422 27.2806 6.50735 23.09 6.61985 20.9525C6.73235 18.8151 8.91669 11.9058 9.99479 8.71836C7.65108 8.53087 2.90741 9.53397 2.68241 15.0464C0.573073 13.3589 2.40117 8.01524 7.04172 7.45275C7.04172 6.32777 3.10428 5.62465 0.713695 8.29649C1.41681 4.35905 6.90109 3.65593 8.86981 6.609C9.29168 4.92153 6.05736 1.5466 3.38553 1.96846C7.04172 0.984105 10.4167 1.26534 10.6979 6.609C14.2135 2.39033 18.7134 3.09343 20.4009 6.609C16.3228 4.78092 14.776 5.06217 12.3854 7.45275C17.0259 6.609 20.2602 9.28084 19.4165 14.3433C18.854 11.1089 16.0897 8.71835 12.9479 8.9996C16.1822 11.8121 18.1509 15.7495 13.5104 19.2651C14.776 15.0464 14.776 11.8871 10.6979 9.70271C9.99479 10.6871 8.44794 22.3588 12.3854 29.8118C14.2135 28.8274 15.4791 29.1087 15.9009 29.8118C16.3228 30.5149 18.5728 30.3743 19.1353 30.093C19.6978 29.8118 21.5259 28.968 22.6508 29.8118C23.7758 30.6555 25.6039 30.7961 26.4476 30.093C27.2914 29.3899 29.1195 28.968 30.2445 29.8118C31.3694 30.6555 32.635 30.093 33.4788 29.8118C34.1538 29.5868 35.4475 29.2493 36.01 29.1086V34.4523C35.4006 34.4054 34.0694 34.3961 33.6194 34.7335C33.0569 35.1554 31.2288 35.8585 30.5257 35.0148C29.8226 34.1711 28.6976 34.1711 27.7132 34.5929C26.7289 35.0148 24.4789 35.7179 23.6352 35.1554C22.7915 34.5929 21.3852 34.0304 20.8227 34.4523C20.2602 34.8742 19.5571 35.8585 17.729 35.296C15.9009 34.7335 15.0572 34.0304 13.7916 34.4523C12.526 34.8742 11.5416 36.1398 9.85417 35.296C8.1667 34.4523 6.61985 33.8898 5.77611 34.7335C4.93238 35.5773 2.68241 35.4366 1.9793 34.8742C1.41681 34.4242 0.43245 34.3117 0.010582 34.3117Z" fill="#E5F5FD"/>
<path d="M35.4475 28.6873C34.7109 28.6732 33.9902 28.9025 33.3972 29.3398C32.9799 29.6468 32.4753 29.8124 31.9572 29.8124C31.4391 29.8124 30.9346 29.6468 30.5173 29.3398C29.9184 28.9154 29.2024 28.6874 28.4684 28.6874C27.7344 28.6874 27.0184 28.9154 26.4195 29.3398C26.0026 29.6465 25.4986 29.812 24.981 29.812C24.4633 29.812 23.9593 29.6465 23.5424 29.3398C22.9435 28.9154 22.2276 28.6874 21.4935 28.6874C20.7595 28.6874 20.0436 28.9154 19.4446 29.3398C19.0279 29.647 18.5238 29.8127 18.0061 29.8127C17.4884 29.8127 16.9842 29.647 16.5675 29.3398C15.9755 28.9027 15.2558 28.6734 14.52 28.6873C13.8841 28.6694 13.2574 28.8417 12.7201 29.1823C9.8373 22.6546 10.1017 15.5306 11.0326 10.1982C12.3181 11.045 13.2518 12.3306 13.6594 13.815C14.0082 15.1219 13.9563 16.5035 13.5104 17.7806C13.4541 17.9212 13.0941 18.7227 12.9479 18.9871C12.8541 19.0738 12.7926 19.1899 12.7735 19.3162C12.7604 19.3972 12.7651 19.4801 12.7874 19.5591C12.8098 19.6381 12.8491 19.7113 12.9027 19.7735C12.9563 19.8357 13.0229 19.8854 13.0977 19.9191C13.1726 19.9528 13.2539 19.9697 13.336 19.9687C13.4724 19.9692 13.6043 19.9203 13.7072 19.8309C14.4023 19.5023 15.0095 19.0136 15.4791 18.4049C16.0884 17.6492 16.5059 16.7572 16.6959 15.8052C16.886 14.8532 16.8429 13.8693 16.5703 12.9375C16.1974 11.5697 15.3397 10.3841 14.1572 9.60196C14.7536 9.74625 15.3232 9.98454 15.8447 10.3079C16.9794 11.0132 17.8715 12.0485 18.4012 13.275C18.4575 13.4156 18.7331 14.2538 18.8034 14.5491C18.7949 14.6758 18.8296 14.8017 18.9018 14.9062C18.9521 14.9797 19.0191 15.0402 19.0974 15.0828C19.1756 15.1253 19.2628 15.1487 19.3518 15.1509C19.3518 15.1509 19.3518 15.1509 19.3687 15.1509C19.4497 15.1513 19.5299 15.1341 19.6037 15.1006C19.6775 15.0671 19.7431 15.0181 19.7962 14.9569C19.8749 14.8692 19.9241 14.759 19.9368 14.6419C20.2176 13.9212 20.3283 13.1455 20.2603 12.375C20.1992 11.4112 19.9047 10.4767 19.402 9.65204C18.8992 8.82742 18.2035 8.13746 17.3747 7.64168C16.4877 7.08718 15.462 6.79469 14.416 6.79794C14.0871 6.79803 13.7588 6.82531 13.4344 6.8795C13.9549 6.58672 14.5174 6.37611 15.1022 6.25514C16.3941 5.98115 17.7393 6.11784 18.9496 6.64607C19.0846 6.71076 19.8412 7.13262 20.0746 7.29575C20.1276 7.36368 20.1955 7.41853 20.273 7.45608C20.3505 7.49362 20.4357 7.51286 20.5218 7.51231C20.6277 7.51485 20.7322 7.48744 20.8232 7.43323C20.9142 7.37902 20.988 7.30022 21.0362 7.20589C21.0844 7.11156 21.105 7.00555 21.0956 6.90004C21.0862 6.79453 21.0472 6.69383 20.9831 6.60951C20.7119 5.88467 20.2746 5.2335 19.7062 4.70829C18.6302 3.6866 17.2075 3.10987 15.7238 3.09394C15.2861 3.09386 14.8499 3.14579 14.4244 3.24863C13.1452 3.52321 11.9993 4.22922 11.1788 5.24828C11.0077 4.20171 10.5164 3.23389 9.77262 2.47801C9.28032 1.95597 8.68543 1.54134 8.02527 1.26014C7.36511 0.978944 6.65395 0.837258 5.93643 0.843978C5.64703 0.842965 5.35811 0.867434 5.07301 0.917102C4.38727 1.02012 3.73572 1.28421 3.17179 1.68771C3.03285 1.72329 2.91275 1.8106 2.83604 1.93179C2.75934 2.05297 2.73182 2.19888 2.75912 2.33968C2.78642 2.48048 2.86647 2.60554 2.9829 2.68928C3.09934 2.77302 3.24337 2.80912 3.38553 2.7902C3.4407 2.79046 3.49562 2.78289 3.54866 2.7677C3.86365 2.7677 4.60051 2.83801 4.67364 2.84645C5.82735 3.05323 6.88911 3.61112 7.7139 4.44392C7.98485 4.71633 8.22446 5.0182 8.42826 5.3439C7.57594 4.65617 6.52454 4.26165 5.43019 4.21892C4.5679 4.16858 3.70647 4.33105 2.92175 4.69201C2.13704 5.05298 1.45313 5.60137 0.930261 6.28889C0.499785 6.83493 0.203989 7.4747 0.066838 8.15636C-0.00402331 8.28913 -0.019239 8.44461 0.0245383 8.5886C0.0683156 8.73259 0.1675 8.8533 0.300272 8.92416C0.433044 8.99502 0.588527 9.01023 0.732517 8.96646C0.876508 8.92268 0.99721 8.8235 1.06807 8.69072C1.26494 8.51073 1.85275 8.04667 1.94837 7.97917C2.93076 7.34219 4.08582 7.02396 5.25582 7.06794C5.66715 7.08346 6.0751 7.14861 6.47079 7.262C5.34537 7.33097 4.27485 7.77224 3.42772 8.51635C2.7657 9.07369 2.25035 9.78477 1.92676 10.5874C1.60316 11.39 1.48119 12.2597 1.5715 13.1203C1.63029 13.8124 1.8509 14.481 2.21555 15.0722C2.25114 15.1874 2.32284 15.2882 2.42007 15.3596C2.5173 15.431 2.63491 15.4693 2.75554 15.4687C2.79202 15.4722 2.82875 15.4722 2.86523 15.4687C2.95316 15.4518 3.03578 15.4142 3.10622 15.3589C3.17666 15.3036 3.23288 15.2323 3.27022 15.1509C3.32299 15.0366 3.33587 14.9078 3.30678 14.7853C3.32647 14.5041 3.43616 13.7756 3.46147 13.6603C3.73621 12.5091 4.35996 11.4708 5.24738 10.6876C6.25731 9.81513 7.54932 9.3385 8.88388 9.34603C9.03013 9.34603 9.16512 9.34603 9.31981 9.3629H9.36481C6.34705 14.0625 5.64956 22.4717 6.58892 28.8082C6.19886 28.9253 5.83035 29.1048 5.49769 29.3398C5.08687 29.6572 4.57955 29.824 4.06052 29.8122C3.54054 29.8246 3.03212 29.6578 2.62055 29.3398C2.02843 28.9029 1.30877 28.6736 0.57308 28.6873C0.423898 28.6873 0.280826 28.7465 0.175339 28.852C0.0698512 28.9575 0.010589 29.1006 0.010589 29.2498C0.010589 29.3989 0.0698512 29.542 0.175339 29.6475C0.280826 29.753 0.423898 29.8122 0.57308 29.8122C1.09306 29.7999 1.60149 29.9667 2.01306 30.2847C2.60517 30.7216 3.32483 30.9509 4.06052 30.9372C4.79624 30.9511 5.51597 30.7218 6.10799 30.2847C6.51956 29.9667 7.02798 29.7999 7.54796 29.8122C8.06699 29.8005 8.57431 29.9673 8.98513 30.2847C9.57724 30.7216 10.2969 30.9509 11.0326 30.9372C11.7683 30.9509 12.4879 30.7216 13.0801 30.2847C13.4968 29.9775 14.0009 29.8118 14.5186 29.8118C15.0364 29.8118 15.5405 29.9775 15.9572 30.2847C16.5557 30.7089 17.2711 30.9367 18.0047 30.9367C18.7382 30.9367 19.4537 30.7089 20.0521 30.2847C20.469 29.978 20.9731 29.8125 21.4907 29.8125C22.0083 29.8125 22.5124 29.978 22.9293 30.2847C23.5282 30.7091 24.2441 30.9371 24.9781 30.9371C25.7122 30.9371 26.4281 30.7091 27.027 30.2847C27.4439 29.978 27.948 29.8125 28.4656 29.8125C28.9832 29.8125 29.4873 29.978 29.9042 30.2847C30.5035 30.7094 31.2199 30.9375 31.9544 30.9375C32.689 30.9375 33.4054 30.7094 34.0047 30.2847C34.4173 29.9665 34.9266 29.7997 35.4475 29.8122C35.5967 29.8122 35.7398 29.753 35.8452 29.6475C35.9507 29.542 36.01 29.3989 36.01 29.2498C36.01 29.1006 35.9507 28.9575 35.8452 28.852C35.7398 28.7465 35.5967 28.6873 35.4475 28.6873ZM8.72919 25.3123C8.26637 25.307 7.80611 25.2428 7.35953 25.1211C7.30609 23.9961 7.30328 22.8514 7.35953 21.7461C7.70889 21.871 8.07693 21.9357 8.44795 21.9374C8.82196 21.9481 9.19448 21.886 9.54481 21.7546C9.69744 22.9584 9.9219 24.1521 10.217 25.3292L10.0792 25.1464L10.1101 25.1239C10.1101 25.1239 9.76418 25.3123 8.72919 25.3123ZM9.75293 10.9829C9.49837 12.6598 9.34248 14.3501 9.28606 16.0453C9.18633 16.0719 9.09585 16.1254 9.0245 16.2C8.84567 16.2879 8.64671 16.3267 8.44795 16.3125C8.29959 16.3098 8.15254 16.2842 8.01202 16.2365C8.3612 14.417 8.94645 12.6509 9.75293 10.9829ZM8.44795 17.4375C8.7253 17.4417 9.00155 17.4019 9.26637 17.3193C9.26637 18.3796 9.31137 19.4596 9.41262 20.5565C9.32882 20.5806 9.2518 20.624 9.18762 20.683C8.95611 20.7884 8.7015 20.833 8.44795 20.8124C8.14085 20.8026 7.83876 20.7318 7.55921 20.6043C7.51438 20.5841 7.46711 20.5699 7.41859 20.5621C7.50015 19.4596 7.62953 18.3824 7.8039 17.3446C8.01355 17.4038 8.23011 17.435 8.44795 17.4375ZM15.4791 13.2525C15.6906 13.9682 15.7354 14.7227 15.6101 15.4584C15.4848 16.194 15.1927 16.8912 14.7563 17.4965C15.0825 16.1924 15.0709 14.8266 14.7225 13.5281C14.3695 12.2099 13.6578 11.0153 12.6666 10.0773C13.3481 10.3545 13.9564 10.7852 14.4443 11.3359C14.9321 11.8867 15.2862 12.5426 15.4791 13.2525ZM16.7981 8.60635C17.4394 8.98433 17.9842 9.50591 18.3897 10.1301C18.7952 10.7542 19.0505 11.464 19.1353 12.2035C18.4966 11.0365 17.5664 10.0549 16.4353 9.35446C15.2989 8.65001 13.9868 8.28054 12.6498 8.28854H12.5963C13.1752 8.04976 13.7954 7.92743 14.4216 7.92855C15.2618 7.926 16.0857 8.16096 16.7981 8.60635ZM14.6747 4.34548C15.0181 4.2618 15.3703 4.21932 15.7238 4.21892C16.8522 4.23216 17.939 4.64695 18.7893 5.3889C17.5291 4.96483 16.1785 4.88521 14.8772 5.15828C13.5627 5.43725 12.3532 6.08051 11.387 7.0145C11.6899 6.34477 12.1448 5.75485 12.7155 5.29155C13.2862 4.82826 13.957 4.50434 14.6747 4.34548ZM5.77893 1.96896H5.93643C6.50167 1.96448 7.06175 2.07683 7.58153 2.29898C8.10131 2.52112 8.56959 2.84825 8.957 3.25988C9.36303 3.67314 9.67774 4.16708 9.88074 4.7097C10.0837 5.25233 10.1705 5.83154 10.1354 6.40982C9.82816 5.3698 9.26544 4.42323 8.49857 3.65643C7.73824 2.88677 6.80618 2.30845 5.77893 1.96896ZM5.07301 5.93733C4.07048 5.93249 3.0793 6.14955 2.17055 6.57295C2.93743 5.79555 3.98106 5.35363 5.07301 5.3439C5.163 5.3439 5.253 5.3439 5.35425 5.3439C5.93187 5.36975 6.49746 5.5177 7.01375 5.77803C7.53003 6.03835 7.98529 6.40513 8.34951 6.85419C7.41763 6.29439 6.35906 5.97992 5.27269 5.94014L5.07301 5.93733ZM4.51051 9.87477C3.70395 10.5875 3.07588 11.4795 2.67679 12.4791C2.69016 11.8869 2.83009 11.3045 3.08719 10.7709C3.34429 10.2373 3.71261 9.76487 4.1674 9.3854C4.9132 8.73245 5.87334 8.37703 6.86454 8.38698C7.03563 8.38703 7.20656 8.39736 7.37641 8.41792C6.31432 8.64833 5.32818 9.14479 4.51051 9.8607V9.87477ZM9.60668 29.3538C9.05764 28.9545 8.40093 28.73 7.72234 28.7098C7.60421 27.9167 7.5114 27.1151 7.44109 26.3107C7.86502 26.3967 8.29663 26.4392 8.72919 26.4373C9.3126 26.4609 9.89552 26.3799 10.4504 26.1982C10.7928 27.4005 11.2194 28.5772 11.7273 29.7194C11.5016 29.7848 11.2675 29.8161 11.0326 29.8122C10.5136 29.824 10.0062 29.6572 9.59543 29.3398L9.60668 29.3538Z" fill="#1C3C6B"/>
<path d="M35.4475 31.2184C34.7109 31.2043 33.9902 31.4336 33.3972 31.8709C32.9799 32.1779 32.4753 32.3435 31.9572 32.3435C31.4391 32.3435 30.9346 32.1779 30.5173 31.8709C29.9184 31.4465 29.2024 31.2185 28.4684 31.2185C27.7344 31.2185 27.0184 31.4465 26.4195 31.8709C26.0026 32.1777 25.4986 32.3431 24.981 32.3431C24.4633 32.3431 23.9593 32.1777 23.5424 31.8709C22.9435 31.4465 22.2275 31.2185 21.4935 31.2185C20.7595 31.2185 20.0435 31.4465 19.4446 31.8709C19.0279 32.1781 18.5238 32.3438 18.0061 32.3438C17.4883 32.3438 16.9842 32.1781 16.5675 31.8709C15.9687 31.4461 15.2528 31.2179 14.5186 31.2179C13.7845 31.2179 13.0685 31.4461 12.4698 31.8709C12.053 32.1781 11.5489 32.3438 11.0312 32.3438C10.5135 32.3438 10.0093 32.1781 9.59261 31.8709C9.00127 31.4346 8.28269 31.2053 7.54796 31.2184C6.81227 31.2047 6.09261 31.434 5.50049 31.8709C5.08892 32.1889 4.5805 32.3557 4.06051 32.3434C3.54053 32.3557 3.03211 32.1889 2.62054 31.8709C2.02842 31.434 1.30876 31.2047 0.573073 31.2184C0.423891 31.2184 0.280819 31.2776 0.175332 31.3831C0.0698442 31.4886 0.010582 31.6317 0.010582 31.7809C0.010582 31.9301 0.0698442 32.0731 0.175332 32.1786C0.280819 32.2841 0.423891 32.3434 0.573073 32.3434C1.09306 32.331 1.60148 32.4978 2.01305 32.8159C2.60516 33.2527 3.32483 33.482 4.06051 33.4683C4.79623 33.4822 5.51596 33.2529 6.10798 32.8159C6.51955 32.4978 7.02797 32.331 7.54796 32.3434C8.06698 32.3316 8.57431 32.4984 8.98512 32.8159C9.57724 33.2527 10.2969 33.482 11.0326 33.4683C11.7683 33.482 12.4879 33.2527 13.0801 32.8159C13.4968 32.5087 14.0009 32.3429 14.5186 32.3429C15.0363 32.3429 15.5405 32.5087 15.9572 32.8159C16.5557 33.24 17.2711 33.4678 18.0047 33.4678C18.7382 33.4678 19.4536 33.24 20.0521 32.8159C20.469 32.5091 20.9731 32.3436 21.4907 32.3436C22.0083 32.3436 22.5124 32.5091 22.9293 32.8159C23.5282 33.2403 24.2441 33.4682 24.9781 33.4682C25.7122 33.4682 26.4281 33.2403 27.027 32.8159C27.4439 32.5091 27.948 32.3436 28.4656 32.3436C28.9832 32.3436 29.4873 32.5091 29.9042 32.8159C30.5035 33.2405 31.2199 33.4686 31.9544 33.4686C32.689 33.4686 33.4054 33.2405 34.0047 32.8159C34.4173 32.4976 34.9266 32.3308 35.4475 32.3434C35.5967 32.3434 35.7397 32.2841 35.8452 32.1786C35.9507 32.0731 36.01 31.9301 36.01 31.7809C36.01 31.6317 35.9507 31.4886 35.8452 31.3831C35.7397 31.2776 35.5967 31.2184 35.4475 31.2184Z" fill="#1C3C6B"/>
<path d="M35.4475 33.7496C34.7109 33.7355 33.9902 33.9649 33.3972 34.4021C32.9799 34.7091 32.4753 34.8747 31.9572 34.8747C31.4391 34.8747 30.9346 34.7091 30.5173 34.4021C29.9184 33.9777 29.2024 33.7498 28.4684 33.7498C27.7344 33.7498 27.0184 33.9777 26.4195 34.4021C26.0026 34.7089 25.4986 34.8744 24.981 34.8744C24.4633 34.8744 23.9593 34.7089 23.5424 34.4021C22.9435 33.9777 22.2275 33.7498 21.4935 33.7498C20.7595 33.7498 20.0435 33.9777 19.4446 34.4021C19.0279 34.7093 18.5238 34.8751 18.0061 34.8751C17.4883 34.8751 16.9842 34.7093 16.5675 34.4021C15.9687 33.9773 15.2528 33.7491 14.5186 33.7491C13.7845 33.7491 13.0685 33.9773 12.4698 34.4021C12.053 34.7093 11.5489 34.8751 11.0312 34.8751C10.5135 34.8751 10.0093 34.7093 9.59261 34.4021C9.00127 33.9659 8.28269 33.7366 7.54796 33.7496C6.81227 33.7359 6.09261 33.9653 5.50049 34.4021C5.08892 34.7202 4.5805 34.887 4.06051 34.8746C3.54053 34.887 3.03211 34.7202 2.62054 34.4021C2.02842 33.9653 1.30876 33.7359 0.573073 33.7496C0.423891 33.7496 0.280819 33.8089 0.175332 33.9144C0.0698442 34.0199 0.010582 34.1629 0.010582 34.3121C0.010582 34.4613 0.0698442 34.6044 0.175332 34.7099C0.280819 34.8154 0.423891 34.8746 0.573073 34.8746C1.09306 34.8622 1.60148 35.0291 2.01305 35.3471C2.60516 35.7839 3.32483 36.0133 4.06051 35.9996C4.79623 36.0135 5.51596 35.7841 6.10798 35.3471C6.51955 35.0291 7.02797 34.8622 7.54796 34.8746C8.06698 34.8629 8.57431 35.0297 8.98512 35.3471C9.57724 35.7839 10.2969 36.0133 11.0326 35.9996C11.7683 36.0133 12.4879 35.7839 13.0801 35.3471C13.4968 35.0399 14.0009 34.8742 14.5186 34.8742C15.0363 34.8742 15.5405 35.0399 15.9572 35.3471C16.5557 35.7713 17.2711 35.9991 18.0047 35.9991C18.7382 35.9991 19.4536 35.7713 20.0521 35.3471C20.469 35.0403 20.9731 34.8748 21.4907 34.8748C22.0083 34.8748 22.5124 35.0403 22.9293 35.3471C23.5282 35.7715 24.2441 35.9995 24.9781 35.9995C25.7122 35.9995 26.4281 35.7715 27.027 35.3471C27.4439 35.0403 27.948 34.8748 28.4656 34.8748C28.9832 34.8748 29.4873 35.0403 29.9042 35.3471C30.5035 35.7718 31.2199 35.9998 31.9544 35.9998C32.689 35.9998 33.4054 35.7718 34.0047 35.3471C34.4173 35.0289 34.9266 34.8621 35.4475 34.8746C35.5967 34.8746 35.7397 34.8154 35.8452 34.7099C35.9507 34.6044 36.01 34.4613 36.01 34.3121C36.01 34.1629 35.9507 34.0199 35.8452 33.9144C35.7397 33.8089 35.5967 33.7496 35.4475 33.7496Z" fill="#1C3C6B"/>
<path d="M4.22926 25.3125C4.53992 25.3125 4.79175 25.0606 4.79175 24.75C4.79175 24.4393 4.53992 24.1875 4.22926 24.1875C3.91861 24.1875 3.66677 24.4393 3.66677 24.75C3.66677 25.0606 3.91861 25.3125 4.22926 25.3125Z" fill="#1C3C6B"/>
</svg>
