<svg width="32" height="30" viewBox="0 0 32 30" fill="none" xmlns="http://www.w3.org/2000/svg">
<path d="M13.5779 18.1332H18.4446L19.178 12.7998H12.6893L13.5779 18.1332Z" fill="#43CAF9"/>
<path d="M3.08133 8.06039L4.26676 2.28219L4.46911 2.02671C5.17875 1.08608 6.28866 0.533203 7.4668 0.533203C8.64521 0.533203 9.75512 1.08608 10.4648 2.02671L10.6668 2.28219L11.8525 8.06039" fill="#E5F5FD"/>
<path d="M20.1483 8.06039L21.3338 2.28219L21.5361 2.02671C22.2458 1.08608 23.3557 0.533203 24.5338 0.533203C25.7122 0.533203 26.8221 1.08608 27.5318 2.02671L27.7339 2.28219L28.9196 8.06039" fill="#E5F5FD"/>
<path d="M0.57457 21.6421L2.13344 8.54821L2.21678 8.46487C5.1163 5.56509 9.81766 5.56509 12.7172 8.46487L12.8003 8.54821L14.3503 21.5617" fill="#43CAF9"/>
<path d="M31.3994 21.4292L29.8671 8.11103L29.784 8.02796C26.8842 5.1287 22.1834 5.1287 19.2836 8.02796L19.2002 8.11103L17.6002 21.9779" fill="#43CAF9"/>
<path d="M31.4671 22.4002C31.4671 26.2294 28.3629 29.3337 24.5336 29.3337C20.7044 29.3337 17.6002 26.2294 17.6002 22.4002C17.6002 18.571 20.7044 15.4668 24.5336 15.4668C28.3629 15.4668 31.4671 18.571 31.4671 22.4002Z" fill="#43CAF9"/>
<path d="M14.4004 22.4002C14.4004 26.2294 11.2962 29.3337 7.46698 29.3337C3.63776 29.3337 0.533554 26.2294 0.533554 22.4002C0.533554 18.571 3.63776 15.4668 7.46698 15.4668C11.2962 15.4668 14.4004 18.571 14.4004 22.4002Z" fill="#43CAF9"/>
<path d="M29.3337 22.3997C29.3337 25.0508 27.1847 27.1997 24.5336 27.1997C21.8828 27.1997 19.7336 25.0508 19.7336 22.3997C19.7336 19.7489 21.8828 17.5996 24.5336 17.5996C27.1847 17.5996 29.3337 19.7489 29.3337 22.3997Z" fill="#E5F5FD"/>
<path d="M12.267 22.3997C12.267 25.0508 10.1181 27.1997 7.46698 27.1997C4.81616 27.1997 2.66692 25.0508 2.66692 22.3997C2.66692 19.7489 4.81616 17.5996 7.46698 17.5996C10.1181 17.5996 12.267 19.7489 12.267 22.3997Z" fill="#E5F5FD"/>
<path d="M7.46688 29.8667C11.3799 29.8607 14.6253 26.8362 14.9065 22.9333H17.0933C17.3693 26.9497 20.7816 30.0232 24.8048 29.8792C28.8283 29.7354 32.0122 26.426 32.0005 22.4C32.0005 22.1994 31.9861 22.0028 31.9708 21.8065L31.9968 21.8033L30.3968 8.46988C30.3825 8.35112 30.3288 8.24071 30.2442 8.15607L30.1611 8.073C29.8973 7.8131 29.6158 7.57221 29.3184 7.3519L28.2559 2.17476C28.2384 2.09273 28.202 2.01591 28.1494 1.9508L27.9473 1.69585C27.1366 0.62761 25.8728 0 24.5316 0C23.1907 0 21.9269 0.62761 21.1162 1.69585L20.9136 1.95132C20.8608 2.01643 20.8243 2.09325 20.8069 2.17528L19.7443 7.35242C19.4469 7.57273 19.1654 7.81362 18.9016 8.07352L18.8186 8.15659C18.7334 8.24201 18.6798 8.35347 18.666 8.473L18.4787 10.1332H13.5279L13.33 8.4842C13.3154 8.36571 13.2617 8.25529 13.1774 8.17065L13.0943 8.08732C12.8315 7.82872 12.5513 7.58862 12.2552 7.36908L11.1885 2.17476C11.1711 2.09273 11.1346 2.01591 11.082 1.9508L10.8805 1.69585C10.0698 0.62761 8.80596 0 7.4648 0C6.1239 0 4.86009 0.62761 4.0494 1.69585L3.8468 1.95132C3.79497 2.01669 3.75929 2.09351 3.74263 2.17528L2.67595 7.3696C2.38011 7.58914 2.09964 7.82924 1.83714 8.08784L1.75381 8.17117C1.66865 8.25633 1.615 8.36779 1.6012 8.48732L0.187906 20.7585C-0.31887 22.9718 0.211864 25.2953 1.62959 27.069C3.04705 28.843 5.19629 29.873 7.46688 29.8667ZM7.46688 28.8C3.94549 28.7969 1.08687 25.9518 1.06682 22.4304L1.23818 20.9466C1.99782 17.6882 5.13926 15.565 8.4458 16.0746C11.7526 16.5843 14.1089 19.5549 13.8521 22.8909C13.5956 26.2268 10.8127 28.8021 7.46688 28.8ZM17.0943 21.8666H14.9076C14.9076 21.8513 14.9076 21.8359 14.9076 21.8208L14.9331 21.8177L14.5518 18.6666H17.4938L17.2506 20.7723C17.1711 21.1328 17.1191 21.4984 17.0943 21.8666ZM17.6175 17.5999H14.4237L13.9117 13.3332H18.1097L17.6175 17.5999ZM24.5337 28.8C21.0084 28.7966 18.1485 25.9456 18.1337 22.4203L18.3024 20.9585C19.0563 17.6971 22.1959 15.5676 25.5048 16.0733C28.8137 16.5793 31.1741 19.5494 30.9195 22.8869C30.6648 26.2247 27.8811 28.8021 24.5337 28.8ZM21.8308 2.51409L21.9545 2.35705C22.5629 1.54455 23.5186 1.06616 24.5337 1.06616C25.5488 1.06616 26.5046 1.54455 27.1129 2.35705L27.2369 2.51357L28.071 6.57741C25.8415 5.4761 23.2262 5.4761 20.9967 6.57741L21.8308 2.51409ZM29.3601 8.78082L30.4497 17.8619C29.0512 16.0275 26.8814 14.9455 24.5749 14.9324C22.2683 14.9192 20.0863 15.9765 18.667 17.7947L19.7071 8.78134C22.3889 6.15553 26.6777 6.15527 29.3601 8.78082ZM18.3561 11.1999L18.2329 12.2665H13.7839L13.6557 11.1999H18.3561ZM4.76399 2.51409L4.88769 2.35705C5.49603 1.54455 6.45177 1.06616 7.46688 1.06616C8.482 1.06616 9.43774 1.54455 10.0461 2.35705L10.17 2.51357L11.0073 6.59355C8.77601 5.4899 6.15802 5.4899 3.92674 6.59355L4.76399 2.51409ZM2.64184 8.7941C5.32389 6.16803 9.61326 6.16803 12.2953 8.7941L13.3828 17.8575C11.9841 16.0249 9.81482 14.9442 7.50959 14.9314C5.2041 14.9186 3.02309 15.9752 1.60407 17.7921L2.64184 8.7941Z" fill="#1C3C6B"/>
<path d="M7.46693 17.0664C4.52158 17.0664 2.13353 19.4545 2.13353 22.3998C2.13353 25.3454 4.52158 27.7332 7.46693 27.7332C10.4125 27.7332 12.8003 25.3454 12.8003 22.3998C12.7972 19.4558 10.4112 17.0698 7.46693 17.0664ZM7.46693 26.6665C5.11065 26.6665 3.20021 24.7564 3.20021 22.3998C3.20021 20.0435 5.11065 18.1331 7.46693 18.1331C9.82348 18.1331 11.7337 20.0435 11.7337 22.3998C11.7311 24.7553 9.82244 26.6639 7.46693 26.6665Z" fill="#1C3C6B"/>
<path d="M24.5336 17.0664C21.5882 17.0664 19.2002 19.4545 19.2002 22.3998C19.2002 25.3454 21.5882 27.7332 24.5336 27.7332C27.4792 27.7332 29.867 25.3454 29.867 22.3998C29.8639 19.4558 27.4779 17.0698 24.5336 17.0664ZM24.5336 26.6665C22.1773 26.6665 20.2669 24.7564 20.2669 22.3998C20.2669 20.0435 22.1773 18.1331 24.5336 18.1331C26.8901 18.1331 28.8003 20.0435 28.8003 22.3998C28.7977 24.7553 26.8891 26.6639 24.5336 26.6665Z" fill="#1C3C6B"/>
<path d="M2.66994 14.9022L3.20614 9.03516L4.2684 9.13203L3.73245 14.9993L2.66994 14.9022Z" fill="#00B8F8"/>
<path d="M19.7407 14.8995L20.2766 9.03223L21.3391 9.12936L20.8029 14.9966L19.7407 14.8995Z" fill="#00B8F8"/>
</svg>
